# xmcd
#
# Track frame offsets: 
#        150
#        16079
#        28967
#        40101
#        53581
#        60905
#        73029
#
# Disc length: 1167 seconds
#
# Revision: 0
# Processed by: cddbd v1.5.2PL0 Copyright (c) Steve Scherf et al.
# Submitted via: ExactAudioCopy v1.0b1
#
DISCID=50048d07
DTITLE=Dominique A - La musique 2-2
DYEAR=2010
DGENRE=Country
TTITLE0=Immortels
TTITLE1=La fin d'un monde
TTITLE2=Morning kisses
TTITLE3=Un amour à la rue
TTITLE4=La beauté
TTITLE5=Tu es ma nuit
TTITLE6=Dernier chant d'amour
EXTD=
EXTT0=
EXTT1=
EXTT2=
EXTT3=
EXTT4=
EXTT5=
EXTT6=
PLAYORDER=
